<svg width="616" height="158" viewBox="0 0 616 158" fill="none" xmlns="http://www.w3.org/2000/svg">
<path d="M87.101 48.355L69.069 66.065H87.101V120H55.062V85.707H43.148V120H11.27V89.893L29.302 72.183H11.27V6.97803H43.309V52.541H55.223V6.97803H87.101V48.355Z" fill="white"/>
<path d="M174.047 6.97803V68.963H142.008V34.509H130.094V95.528H142.008V76.691H173.886L174.047 96.172L149.897 120H98.2163V44.169L122.366 6.97803H174.047Z" fill="white"/>
<path d="M260.833 134.651H228.955V72.183H217.041V120H185.163V6.97803H217.041V52.541H228.955V6.97803H260.833V134.651Z" fill="white"/>
<path d="M347.94 120H316.062V72.183H303.987V120H272.109V44.169L296.259 6.97803H347.94V120ZM316.062 52.541V29.357L303.987 52.541H316.062Z" fill="white"/>
<path d="M434.886 120H402.847V34.509H390.933V120H359.055V30.806L383.205 6.97803H434.886V120Z" fill="white"/>
<path d="M521.832 43.525L521.671 134.651H489.793V120H470.151L446.001 82.809V6.97803H521.671V31.45H477.879V92.469H489.793V43.525H521.832Z" fill="white"/>
<path d="M608.618 120H532.948V6.97803H608.618V34.509H564.826V52.541H581.731V72.183H564.826V92.469H608.618V120Z" fill="white"/>
<path d="M94.024 51.198L91.448 59.087H94.024V126.868L89.677 142.485H0V102.557L2.576 94.668H0V15.617L4.347 0H94.024V51.198ZM87.101 48.3V6.92301H55.223V52.486H43.309V6.92301H11.27V72.128H29.302L11.27 89.838V119.945H43.148V85.652H55.062V119.945H87.101V66.01H69.069L87.101 48.3Z" fill="#264C37"/>
<path d="M180.97 99.015L176.623 114.632L148.448 142.485H86.9463L87.1073 48.461L118.663 0H180.97V99.015ZM174.047 6.92301H122.366L98.2163 44.114V119.945H149.897L174.047 96.117L173.886 76.636H142.008V95.473H130.094V34.454H142.008V68.908H174.047V6.92301Z" fill="#264C37"/>
<path d="M267.756 141.519L263.409 157.136H217.685V142.485H173.893V15.617L178.24 0H267.756V141.519ZM260.833 134.596V6.92301H228.955V52.486H217.041V6.92301H185.163V119.945H217.041V72.128H228.955V134.596H260.833Z" fill="#264C37"/>
<path d="M354.863 126.868L350.516 142.485H260.839L261 48.461L292.556 0H354.863V126.868ZM347.94 119.945V6.92301H296.259L272.109 44.114V119.945H303.987V72.128H316.062V119.945H347.94ZM316.062 52.486H303.987L316.062 29.302V52.486Z" fill="#264C37"/>
<path d="M441.809 126.868L437.462 142.485H347.785L347.946 32.2L380.468 0H441.809V126.868ZM434.886 119.945V6.92301H383.205L359.055 30.751V119.945H390.933V34.454H402.847V119.945H434.886Z" fill="#264C37"/>
<path d="M528.594 141.519L524.247 157.136H478.523V142.485H462.101L434.731 100.464V15.617L439.078 0H528.594V141.519ZM521.832 43.47H489.793V92.414H477.879V31.395H521.671V6.92301H446.001V82.754L470.151 119.945H489.793V134.596H521.671L521.832 43.47Z" fill="#264C37"/>
<path d="M615.541 126.868L611.194 142.485H521.678V15.617L526.025 0H615.541V41.377L611.194 56.994H588.654V79.051L584.307 85.491H615.541V126.868ZM608.618 119.945V92.414H564.826V72.128H581.731V52.486H564.826V34.454H608.618V6.92301H532.948V119.945H608.618Z" fill="#264C37"/>
</svg>
